#!OML:ASF E:\motion texture\Top Level 1\Subject 1\Session 1\male.ASF
:FULLY-SPECIFIED
:DEGREES
719
root -38.1788 17.6805 10.4525 193.691 -56.9732 -190.682
lowerback 3.17905 -10.5083 -1.68988
upperback -2.82984 -14.3817 9.5181
thorax -1.81578 -7.35498 11.3881
lowerneck 4.84477 -14.9133 -20.4052
upperneck 22.4533 -31.1504 17.7703
head 12.7772 -15.9389 5.33431
rclavicle -5.88403e-014 9.22361e-014
rhumerus -43.6798 -27.8288 -57.0841
rradius 14.8776
rwrist 32.3368
rhand 6.74234 -21.0689
rfingers 7.12502
rthumb 32.0304 -48.2688
lclavicle -5.88403e-014 9.22361e-014
lhumerus -40.3608 7.64415 71.831
lradius 89.7809
lwrist -25.7907
lhand 2.43542 16.8785
lfingers 7.12502
lthumb 27.9209 44.8227
rfemur -35.0803 1.61455 9.76214
rtibia 56.8967
rfoot -7.28304 -16.3075
rtoes -2.13689
lfemur 1.93501 2.56629 -23.7834
ltibia 17.6302
lfoot -18.5857 14.6049
ltoes -9.8548
720
root -38.2759 17.6816 10.4561 193.595 -56.8884 -190.473
lowerback 3.2402 -10.5508 -1.75946
upperback -2.84166 -14.4424 9.53359
thorax -1.82878 -7.38501 11.4544
lowerneck 4.89197 -14.9468 -20.3908
upperneck 22.3467 -31.2498 17.8908
head 12.7716 -15.9816 5.35565
rclavicle 1.27222e-014 3.18055e-015
rhumerus -43.4929 -27.552 -57.4409
rradius 14.7884
rwrist 32.3725
rhand 6.31061 -21.186
rfingers 7.12502
rthumb 31.6192 -48.4676
lclavicle 1.27222e-014 3.18055e-015
lhumerus -39.6904 8.28526 70.9596
lradius 89.5736
lwrist -25.7759
lhand 0.85522 17.5869
lfingers 7.12502
lthumb 26.4093 45.7674
rfemur -35.535 1.52216 9.80476
rtibia 56.2502
rfoot -6.95075 -16.4915
rtoes -1.99966
lfemur 2.32063 2.55369 -23.8901
ltibia 17.2987
lfoot -18.5548 14.7088
ltoes -10.1125
721
root -38.3729 17.6821 10.4578 193.496 -56.8085 -190.247
lowerback 3.29581 -10.5942 -1.82281
upperback -2.85388 -14.5043 9.55106
thorax -1.83968 -7.41597 11.5184
lowerneck 4.93908 -14.9787 -20.3778
upperneck 22.2538 -31.3488 18.0001
head 12.7696 -16.0251 5.37316
rclavicle -4.92986e-014 -6.36111e-015
rhumerus -43.2357 -27.1808 -57.8558
rradius 14.7413
rwrist 32.3042
rhand 5.84575 -21.325
rfingers 7.12502
rthumb 31.1763 -48.6927
lclavicle -4.92986e-014 -6.36111e-015
lhumerus -38.997 8.93409 70.1405
lradius 89.3312
lwrist -25.7893
lhand -0.675881 18.2643
lfingers 7.12502
lthumb 24.9428 46.6565
rfemur -35.9657 1.43871 9.87134
rtibia 55.4775
rfoot -6.65553 -16.6629
rtoes -1.85779
lfemur 2.68424 2.54378 -23.976
ltibia 16.9916
lfoot -18.5219 14.8017
ltoes -10.3935
722
root -38.47 17.6821 10.4576 193.392 -56.7324 -190.003
lowerback 3.34448 -10.6382 -1.87835
upperback -2.86673 -14.5671 9.57137
thorax -1.84816 -7.44776 11.5798
lowerneck 4.985 -15.0089 -20.3664
upperneck 22.1738 -31.4465 18.0981
head 12.7707 -16.0688 5.38699
rclavicle -5.64548e-014 -1.90833e-014
rhumerus -42.9151 -26.721 -58.3201
rradius 14.7376
rwrist 32.1404
rhand 5.35811 -21.478
rfingers 7.12502
rthumb 30.7115 -48.9341
lclavicle -5.64548e-014 -1.90833e-014
lhumerus -38.2834 9.58126 69.3781
lradius 89.0568
lwrist -25.8213
lhand -2.14347 18.9081
lfingers 7.12502
lthumb 23.5358 47.4881
rfemur -36.3695 1.36774 9.96283
rtibia 54.5779
rfoot -6.39666 -16.8181
rtoes -1.72157
lfemur 3.02633 2.53475 -24.0405
ltibia 16.7081
lfoot -18.4865 14.8854
ltoes -10.6984
723
root -38.5672 17.6818 10.4555 193.291 -56.6594 -189.749
lowerback 3.3858 -10.6822 -1.93062
upperback -2.8804 -14.63 9.59275
thorax -1.8538 -7.47978 11.6391
lowerneck 5.03049 -15.0382 -20.3556
upperneck 22.1048 -31.5434 18.1859
head 12.7743 -16.1128 5.3973
rclavicle 1.19271e-015 2.25819e-013
rhumerus -42.5373 -26.1721 -58.8324
rradius 14.7805
rwrist 31.8671
rhand 4.84141 -21.6642
rfingers 7.12502
rthumb 30.2187 -49.2116
lclavicle 1.19271e-015 2.25819e-013
lhumerus -37.5531 10.218 68.68
lradius 88.7544
lwrist -25.8686
lhand -3.54248 19.5217
lfingers 7.12502
lthumb 22.1932 48.2677
rfemur -36.7437 1.30858 10.0731
rtibia 53.5531
rfoot -6.17273 -16.9521
rtoes -1.59632
lfemur 3.34766 2.52424 -24.0904
ltibia 16.4482
lfoot -18.4489 14.9603
ltoes -11.0267
724
root -38.6647 17.6811 10.4513 193.187 -56.5916 -189.477
lowerback 3.41637 -10.7266 -1.97309
upperback -2.89566 -14.6935 9.61742
thorax -1.85641 -7.51253 11.6945
lowerneck 5.07464 -15.0661 -20.3461
upperneck 22.046 -31.6388 18.2645
head 12.7803 -16.1567 5.40474
rclavicle 3.57812e-014 3.49861e-014
rhumerus -42.1127 -25.5519 -59.374
rradius 14.8679
rwrist 31.5089
rhand 4.29508 -21.8783
rfingers 7.12502
rthumb 29.6974 -49.5199
lclavicle 3.57812e-014 3.49861e-014
lhumerus -36.8086 10.841 68.0486
lradius 88.4269
lwrist -25.9243
lhand -4.86016 20.1001
lfingers 7.12502
lthumb 20.9278 48.9911
rfemur -37.0895 1.26212 10.2081
rtibia 52.4101
rfoot -5.98357 -17.0623
rtoes -1.49053
lfemur 3.64607 2.51081 -24.1199
ltibia 16.2124
lfoot -18.4076 15.0282
ltoes -11.389
725
root -38.7627 17.6802 10.445 193.09 -56.5281 -189.201
lowerback 3.43762 -10.7709 -2.0133
upperback -2.91311 -14.7569 9.64391
thorax -1.85611 -7.54542 11.7487
lowerneck 5.11716 -15.0941 -20.3396
upperneck 21.9967 -31.7336 18.3333
head 12.7888 -16.2009 5.40888
rclavicle 1.55052e-013 2.54444e-014
rhumerus -41.654 -24.878 -59.9241
rradius 15.001
rwrist 31.0804
rhand 3.72191 -22.1197
rfingers 7.12502
rthumb 29.1502 -49.8576
lclavicle 1.55052e-013 2.54444e-014
lhumerus -36.0538 11.4454 67.4918
lradius 88.0785
lwrist -25.9847
lhand -6.0991 20.6449
lfingers 7.12502
lthumb 19.7371 49.6628
rfemur -37.4049 1.22604 10.3586
rtibia 51.1583
rfoot -5.82836 -17.1429
rtoes -1.4098
lfemur 3.92462 2.49159 -24.139
ltibia 15.9996
lfoot -18.3637 15.0882
ltoes -11.7702
726
root -38.861 17.679 10.4366 192.996 -56.4691 -188.915
lowerback 3.45068 -10.8157 -2.04869
upperback -2.93256 -14.821 9.6721
thorax -1.85384 -7.5789 11.8005
lowerneck 5.15846 -15.12 -20.3341
upperneck 21.9558 -31.8255 18.3949
head 12.799 -16.2442 5.41115
rclavicle -3.26007e-014 -2.8625e-014
rhumerus -41.1657 -24.1468 -60.4845
rradius 15.1808
rwrist 30.5765
rhand 3.12488 -22.3848
rfingers 7.12502
rthumb 28.5799 -50.22
lclavicle -3.26007e-014 -2.8625e-014
lhumerus -35.2925 12.0274 67.0074
lradius 87.7119
lwrist -26.0459
lhand -7.25797 21.1565
lfingers 7.12502
lthumb 18.6227 50.2851
rfemur -37.6901 1.20183 10.5276
rtibia 49.809
rfoot -5.7028 -17.1898
rtoes -1.35992
lfemur 4.18355 2.46615 -24.1445
ltibia 15.8108
lfoot -18.3168 15.141
ltoes -12.1734
727
root -38.9597 17.6775 10.4261 192.906 -56.4161 -188.623
lowerback 3.45458 -10.8607 -2.07963
upperback -2.95449 -14.8854 9.70235
thorax -1.84949 -7.61269 11.8504
lowerneck 5.19769 -15.1457 -20.3296
upperneck 21.9221 -31.9155 18.4483
head 12.8105 -16.287 5.41077
rclavicle 7.7526e-014 -1.17681e-013
rhumerus -40.6546 -23.3648 -61.0462
rradius 15.408
rwrist 29.9979
rhand 2.49876 -22.6802
rfingers 7.12502
rthumb 27.9815 -50.6146
lclavicle 7.7526e-014 -1.17681e-013
lhumerus -34.5257 12.5798 66.5976
lradius 87.3297
lwrist -26.1031
lhand -8.33803 21.6336
lfingers 7.12502
lthumb 17.5836 50.8584
rfemur -37.9454 1.18867 10.714
rtibia 48.3745
rfoot -5.60485 -17.1965
rtoes -1.34189
lfemur 4.42307 2.43389 -24.1368
ltibia 15.6451
lfoot -18.266 15.1851
ltoes -12.6074
728
root -39.0593 17.676 10.4132 192.831 -56.3697 -188.339
lowerback 3.44883 -10.9074 -2.11215
upperback -2.97787 -14.9521 9.73095
thorax -1.84077 -7.64769 11.8969
lowerneck 5.23421 -15.1709 -20.3233
upperneck 21.8947 -32.0027 18.4942
head 12.8225 -16.3286 5.40793
rclavicle 5.40694e-014 2.54444e-014
rhumerus -40.1283 -22.5415 -61.6009
rradius 15.6821
rwrist 29.3524
rhand 1.83673 -23.0064
rfingers 7.12502
rthumb 27.3484 -51.0423
lclavicle 5.40694e-014 2.54444e-014
lhumerus -33.7556 13.0978 66.2575
lradius 86.9334
lwrist -26.1516
lhand -9.3415 22.0728
lfingers 7.12502
lthumb 16.6177 51.3813
rfemur -38.1647 1.18048 10.9072
rtibia 46.8652
rfoot -5.53253 -17.1516
rtoes -1.359
lfemur 4.65009 2.3951 -24.1283
ltibia 15.4994
lfoot -18.2111 15.2181
ltoes -13.0679
729
root -39.1592 17.6742 10.3982 192.756 -56.3277 -188.041
lowerback 3.4352 -10.9519 -2.13812
upperback -3.00454 -15.0157 9.76309
thorax -1.83239 -7.68131 11.9426
lowerneck 5.26936 -15.1968 -20.3187
upperneck 21.8709 -32.0893 18.5354
head 12.8355 -16.37 5.40356
rclavicle -6.83819e-014 -2.22639e-014
rhumerus -39.5968 -21.6909 -62.1335
rradius 16.0052
rwrist 28.6498
rhand 1.14815 -23.3554
rfingers 7.12502
rthumb 26.6896 -51.4934
lclavicle -6.83819e-014 -2.22639e-014
lhumerus -32.9837 13.5761 65.9924
lradius 86.5258
lwrist -26.1933
lhand -10.271 22.475
lfingers 7.12502
lthumb 15.7226 51.8563
rfemur -38.3611 1.19321 11.1187
rtibia 45.3006
rfoot -5.48065 -17.0536
rtoes -1.4147
lfemur 4.85383 2.35101 -24.1006
ltibia 15.3799
lfoot -18.1511 15.2436
ltoes -13.5594
730
root -39.2598 17.6723 10.3809 192.689 -56.2933 -187.745
lowerback 3.41545 -10.9967 -2.16284
upperback -3.03343 -15.0796 9.79505
thorax -1.82318 -7.71502 11.9862
lowerneck 5.30303 -15.2233 -20.3135
upperneck 21.8504 -32.1746 18.5718
head 12.8486 -16.4108 5.39751
rclavicle -4.69132e-014 -4.77083e-014
rhumerus -39.0632 -20.8269 -62.6378
rradius 16.3723
rwrist 27.8978
rhand 0.420793 -23.7335
rfingers 7.12502
rthumb 25.9934 -51.9757
lclavicle -4.69132e-014 -4.77083e-014
lhumerus -32.2133 14.0112 65.7967
lradius 86.1086
lwrist -26.2255
lhand -11.1293 22.8377
lfingers 7.12502
lthumb 14.8959 52.2821
rfemur -38.5253 1.22103 11.3349
rtibia 43.6835
rfoot -5.43384 -16.8901
rtoes -1.48822
lfemur 5.04379 2.30058 -24.0657
ltibia 15.2828
lfoot -18.0842 15.2586
ltoes -14.0862
731
root -39.3611 17.6702 10.3614 192.637 -56.2642 -187.46
lowerback 3.38976 -11.0415 -2.19137
upperback -3.06417 -15.1435 9.82533
thorax -1.81204 -7.74861 12.0286
lowerneck 5.33627 -15.2498 -20.3082
upperneck 21.8313 -32.2585 18.6059
head 12.8616 -16.451 5.39091
rclavicle -6.24184e-014 -1.62208e-013
rhumerus -38.5329 -19.9626 -63.1047
rradius 16.7811
rwrist 27.1094
rhand -0.343171 -24.1316
rfingers 7.12502
rthumb 25.2616 -52.4792
lclavicle -6.24184e-014 -1.62208e-013
lhumerus -31.4465 14.4007 65.6676
lradius 85.6828
lwrist -26.2496
lhand -11.9177 23.16
lfingers 7.12502
lthumb 14.1363 52.6591
rfemur -38.6599 1.26566 11.5484
rtibia 42.0244
rfoot -5.38345 -16.6645
rtoes -1.61586
lfemur 5.22134 2.24344 -24.0297
ltibia 15.2075
lfoot -18.0101 15.2636
ltoes -14.6404
732
root -39.4633 17.6681 10.3396 192.586 -56.2416 -187.174
lowerback 3.36003 -11.0868 -2.21685
upperback -3.09644 -15.2079 9.85587
thorax -1.80076 -7.78248 12.0688
lowerneck 5.37097 -15.275 -20.3064
upperneck 21.8126 -32.3396 18.6392
head 12.8743 -16.4903 5.38523
rclavicle -2.38542e-015 6.04305e-014
rhumerus -38.0094 -19.1077 -63.526
rradius 17.229
rwrist 26.2952
rhand -1.138 -24.5407
rfingers 7.12502
rthumb 24.4999 -52.9936
lclavicle -2.38542e-015 6.04305e-014
lhumerus -30.688 14.744 65.6031
lradius 85.2493
lwrist -26.2653
lhand -12.6373 23.4388
lfingers 7.12502
lthumb 13.4428 52.985
rfemur -38.7632 1.32621 11.766
rtibia 40.3379
rfoot -5.32946 -16.3775
rtoes -1.81309
lfemur 5.39164 2.18015 -23.9857
ltibia 15.1523
lfoot -17.9287 15.2572
ltoes -15.2224
733
root -39.5658 17.6659 10.3157 192.52 -56.2249 -186.86
lowerback 3.32837 -11.1292 -2.22833
upperback -3.13005 -15.2682 9.89142
thorax -1.79278 -7.81463 12.1072
lowerneck 5.40241 -15.302 -20.3019
upperneck 21.7945 -32.4206 18.6708
head 12.8871 -16.5291 5.37822
rclavicle -1.06151e-013 5.725e-014
rhumerus -37.4933 -18.2558 -63.9098
rradius 17.7183
rwrist 25.4457
rhand -1.95784 -24.9555
rfingers 7.12502
rthumb 23.7138 -53.5125
lclavicle -1.06151e-013 5.725e-014
lhumerus -29.9353 15.0356 65.5994
lradius 84.8076
lwrist -26.2726
lhand -13.295 23.6751
lfingers 7.12502
lthumb 12.8088 53.2622
rfemur -38.8517 1.41842 12.0023
rtibia 38.6478
rfoot -5.26605 -16.0436
rtoes -2.05817
lfemur 5.53997 2.11422 -23.9097
ltibia 15.1269
lfoot -17.8377 15.2407
ltoes -15.8282
